REM MD5 5070563c869cd45dd222c059e32213fd
FILE "Hatsukoi Valentine Special (Japan).bin" BINARY
  TRACK 01 MODE2/2352
    INDEX 01 00:00:00
  TRACK 02 AUDIO
    INDEX 00 60:12:56
    INDEX 01 60:14:56
  TRACK 03 AUDIO
    INDEX 00 62:07:02
    INDEX 01 62:09:02
REM LEADOUT 65:09:04
